<?xml version="1.0" encoding="UTF-8" standalone="no"?>
<!-- Uploaded to: SVG Repo, www.svgrepo.com, Generator: SVG Repo Mixer Tools -->

<svg
   fill="#000000"
   version="1.1"
   id="Capa_1"
   width="800px"
   height="800px"
   viewBox="0 0 514.481 514.481"
   xml:space="preserve"
   sodipodi:docname="chicken-icon.svg"
   inkscape:version="1.1.2 (b8e25be833, 2022-02-05)"
   xmlns:inkscape="http://www.inkscape.org/namespaces/inkscape"
   xmlns:sodipodi="http://sodipodi.sourceforge.net/DTD/sodipodi-0.dtd"
   xmlns="http://www.w3.org/2000/svg"
   xmlns:svg="http://www.w3.org/2000/svg"><defs
   id="defs31" /><sodipodi:namedview
   id="namedview29"
   pagecolor="#ffffff"
   bordercolor="#666666"
   borderopacity="1.0"
   inkscape:pageshadow="2"
   inkscape:pageopacity="0.0"
   inkscape:pagecheckerboard="0"
   showgrid="false"
   inkscape:lockguides="false"
   inkscape:zoom="14.679537"
   inkscape:cx="390.44148"
   inkscape:cy="408.08509"
   inkscape:window-width="1366"
   inkscape:window-height="706"
   inkscape:window-x="-8"
   inkscape:window-y="-8"
   inkscape:window-maximized="1"
   inkscape:current-layer="g24" />
<g
   id="g26">
	<g
   id="g24">
		
		
		
		
		
		
		
		
		
		
		<g
   id="g954"
   style="fill:#ecf0f1;fill-opacity:1"
   transform="matrix(0.02500001,0,0,0.02500001,243.45251,255.63736)"><path
     d="m 422.945,344.219 c -4.387,0 -8.276,1.706 -10.948,4.834 -2.315,2.707 -3.585,6.276 -3.585,10.029 0,7.2 5.099,14.863 14.538,14.863 4.393,0 8.272,-1.716 10.964,-4.845 2.311,-2.701 3.58,-6.256 3.58,-10.023 0.014,-7.201 -5.094,-14.858 -14.549,-14.858 z"
     id="path2"
     style="fill:#ecf0f1;fill-opacity:1" /><path
     d="m 437.559,315 c -2.33,2.707 -3.6,6.256 -3.6,10.034 0,7.195 5.098,14.858 14.548,14.858 4.397,0 8.277,-1.717 10.953,-4.85 2.311,-2.696 3.591,-6.256 3.591,-10.009 0,-7.211 -5.094,-14.863 -14.549,-14.863 -4.397,-0.004 -8.287,1.707 -10.943,4.83 z"
     id="path4"
     style="fill:#ecf0f1;fill-opacity:1" /><path
     d="m 433.609,273.411 c -2.315,2.697 -3.58,6.257 -3.58,10.014 0,7.211 5.088,14.869 14.544,14.869 4.392,0 8.276,-1.707 10.958,-4.84 2.311,-2.706 3.58,-6.261 3.58,-10.029 0,-7.2 -5.089,-14.853 -14.544,-14.853 -4.382,0.005 -8.272,1.716 -10.958,4.839 z"
     id="path6"
     style="fill:#ecf0f1;fill-opacity:1" /><path
     d="m 419.533,311.334 c 0,-7.2 -5.093,-14.858 -14.548,-14.858 -4.388,0 -8.272,1.706 -10.954,4.845 -2.315,2.696 -3.585,6.256 -3.585,10.014 0,7.211 5.094,14.858 14.544,14.858 4.392,0 8.276,-1.707 10.958,-4.835 2.315,-2.702 3.585,-6.261 3.585,-10.024 z"
     id="path8"
     style="fill:#ecf0f1;fill-opacity:1" /><path
     d="m 246.46,345.691 c 4.387,0 8.272,-1.706 10.956,-4.834 2.323,-2.702 3.588,-6.262 3.588,-10.024 0,-7.211 -5.096,-14.857 -14.548,-14.857 -4.39,0 -8.275,1.706 -10.958,4.834 -2.318,2.701 -3.593,6.256 -3.593,10.023 0.004,7.206 5.1,14.858 14.555,14.858 z"
     id="path10"
     style="fill:#ecf0f1;fill-opacity:1" /><path
     d="m 270.408,269.806 c 4.393,0 8.282,-1.721 10.958,-4.844 2.311,-2.687 3.591,-6.236 3.591,-10.011 0,-7.203 -5.094,-14.863 -14.554,-14.863 -4.393,0 -8.272,1.721 -10.948,4.842 -2.326,2.699 -3.595,6.251 -3.595,10.021 0.005,7.197 5.108,14.855 14.548,14.855 z"
     id="path12"
     style="fill:#ecf0f1;fill-opacity:1" /><path
     d="m 266.569,284.218 c -2.311,2.706 -3.59,6.256 -3.59,10.023 0,7.206 5.093,14.858 14.548,14.858 4.397,0 8.277,-1.706 10.953,-4.839 2.321,-2.697 3.596,-6.257 3.596,-10.02 0,-7.2 -5.099,-14.853 -14.554,-14.853 -4.388,-0.009 -8.277,1.708 -10.953,4.831 z"
     id="path14"
     style="fill:#ecf0f1;fill-opacity:1" /><path
     d="m 211.338,346.92 c 4.39,0 8.274,-1.706 10.958,-4.844 2.323,-2.691 3.598,-6.257 3.598,-10.014 0,-7.206 -5.101,-14.868 -14.551,-14.868 -4.387,0 -8.272,1.716 -10.956,4.844 -2.318,2.701 -3.593,6.267 -3.593,10.034 -0.004,7.191 5.092,14.848 14.544,14.848 z"
     id="path16"
     style="fill:#ecf0f1;fill-opacity:1" /><path
     d="m 385.586,336.124 c -4.402,0 -8.287,1.707 -10.958,4.845 -2.315,2.691 -3.591,6.251 -3.591,10.014 0,7.206 5.099,14.863 14.554,14.863 4.388,0 8.272,-1.711 10.948,-4.839 2.32,-2.691 3.596,-6.262 3.596,-10.024 0,-7.211 -5.109,-14.859 -14.549,-14.859 z"
     id="path18"
     style="fill:#ecf0f1;fill-opacity:1" /><path
     d="m 411.241,282.085 c 4.407,0 8.282,-1.706 10.958,-4.834 2.315,-2.697 3.595,-6.257 3.595,-10.02 0,-7.2 -5.098,-14.855 -14.559,-14.855 -4.387,0 -8.271,1.722 -10.947,4.842 -2.311,2.696 -3.591,6.241 -3.591,10.019 0,7.185 5.103,14.848 14.544,14.848 z"
     id="path20"
     style="fill:#ecf0f1;fill-opacity:1" /><path
     d="M 470.637,208.568 C 443.013,163.63 404.766,126.132 354.336,108.016 301.302,88.949 252.319,97.431 210.637,122.255 c -3.618,-3.135 -7.432,-7.01 -11.113,-11.758 3.037,-12.375 1.186,-23.039 -5.35,-30.3 -6.437,-7.165 -16.509,-11.438 -26.941,-11.438 -11.258,0 -19.456,2.996 -25.598,11.164 -4.144,5.522 -7.741,14.96 -8.678,23.653 -13.561,2.252 -26.941,10.105 -30.737,22.221 -3.623,11.583 1.686,25.083 13.51,32.316 12.812,7.836 36.788,1.892 38.483,1.483 0.358,0.223 3.854,2.297 6.594,4.085 -12.959,14.175 -26.02,30.062 -34.146,43.429 -4.639,-1.782 -17.067,-8.32 -28.231,-22.724 3.037,-12.375 1.181,-23.033 -5.35,-30.297 -6.438,-7.163 -16.511,-11.436 -26.946,-11.436 -11.258,0 -19.458,2.996 -25.598,11.164 -4.139,5.518 -7.744,14.96 -8.679,23.648 -13.563,2.252 -26.941,10.105 -30.731,22.221 -3.626,11.578 1.678,25.078 13.51,32.311 12.807,7.841 36.787,1.892 38.479,1.488 0.571,0.348 1.211,0.736 1.892,1.132 2.147,1.28 7.178,4.269 7.972,5.35 0.239,0.65 0.234,0.673 -0.104,1.727 -1.066,3.318 -1.445,7.046 2.958,11.814 3.179,3.439 7.65,5.669 11.966,7.817 2.818,1.411 5.489,2.742 7.368,4.199 3.748,2.93 7.3,6.108 10.728,9.44 -20.764,38.46 -30.087,98.695 4.456,131.458 24.823,23.536 68.898,28.325 101.234,33.678 45.323,7.484 95.834,6.601 141.536,2.538 57.513,-5.123 127.731,-15.894 159.082,-68.704 31.153,-52.475 -3.509,-119.738 -31.566,-165.366 z m -334.94,-67.516 c -5.911,0 -11.71,-2.402 -10.816,-7.909 1.229,-7.513 11.634,-11.11 21.409,-8.917 5.796,1.305 15.308,-4.732 12.329,-13.619 -3.621,-8.203 -3.593,-15.381 3.334,-18.318 7.028,-2.974 12.192,-0.338 14.081,2.147 2.592,3.418 2.442,8.181 -0.49,15.465 -1.335,3.334 -1.122,6.878 0.587,9.875 0.792,2.153 10.473,9.734 13.535,12.703 -4.471,4.4 -9.338,9.277 -14.201,14.353 -4.07,-3.125 -7.929,-6.969 -12.733,-9.277 -6.619,-3.183 -22.765,3.497 -27.035,3.497 z M 74.37,220.72 c -4.073,-3.125 -7.929,-6.969 -12.733,-9.277 -6.627,-3.181 -22.762,3.509 -27.035,3.509 -5.914,0 -11.71,-2.407 -10.816,-7.914 1.227,-7.522 11.639,-11.11 21.414,-8.917 5.796,1.306 15.302,-4.732 12.324,-13.624 -3.616,-8.203 -3.59,-15.376 3.331,-18.309 7.036,-2.979 12.2,-0.338 14.081,2.148 2.6,3.413 2.445,8.181 -0.482,15.465 -1.343,3.328 -1.13,6.883 0.582,9.874 0.797,2.153 10.473,9.729 13.541,12.702 -4.473,4.4 -9.345,9.263 -14.207,14.343 z m 14.066,19.436 17.118,-18.269 c 9.656,7.183 20.701,10.682 33.606,10.682 11.403,0 23.13,-2.658 34.152,-5.388 27.903,-6.883 50.678,-8.881 70.198,-6.203 18.314,2.506 42.294,10.732 52.552,35.67 10.313,25.131 6.032,53.11 -11.182,72.996 -17.682,20.443 -43.569,30.279 -67.842,25.557 -18.299,-3.58 -34.86,-13.959 -50.62,-31.742 -7.317,-8.257 -14.325,-17.285 -21.112,-26.01 -16.378,-21.093 -33.273,-42.826 -56.87,-57.293 z m 370.055,148.358 c -37.247,24.41 -102.524,32.85 -146.667,34.587 -66.26,2.62 -172.06,-7.668 -200.41,-35.582 -12.187,-12.004 -20.992,-54.202 0.125,-95.171 4.789,5.875 9.387,11.933 13.921,17.909 15.147,19.967 30.798,40.624 53.121,54.142 15.435,9.354 33.03,14.279 50.881,14.279 0.005,0 0.005,0 0.01,0 34.282,0 65.016,-17.631 82.215,-47.174 14.142,-24.304 16.65,-54.172 6.743,-79.925 -9.272,-24.021 -27.817,-41.53 -52.217,-49.287 -19.936,-6.335 -42.83,-7.193 -73.412,-2.476 -6.838,1.054 -13.82,2.803 -20.586,4.491 -6.738,1.687 -13.606,3.334 -20.294,4.337 46.887,-67.375 123.92,-115.301 206.427,-75.367 35.562,17.207 72.458,58.401 95.09,89.938 32.905,45.84 64.389,126.387 5.053,165.299 z"
     id="path22"
     style="fill:#ecf0f1;fill-opacity:1" /></g>
	</g>
</g>
</svg>
